<?xml version="1.0" standalone="no"?><!DOCTYPE svg PUBLIC "-//W3C//DTD SVG 1.1//EN" "http://www.w3.org/Graphics/SVG/1.1/DTD/svg11.dtd"><svg t="1527217720881" class="icon" style="" viewBox="0 0 1024 1024" version="1.1" xmlns="http://www.w3.org/2000/svg" p-id="3224" xmlns:xlink="http://www.w3.org/1999/xlink" width="32" height="32"><defs><style type="text/css"></style></defs><path d="M511.829333 171.349333a340.949333 340.949333 0 1 0 0 681.941334 340.949333 340.949333 0 0 0 0-681.941334z m146.218667 442.965334a31.274667 31.274667 0 1 1-44.202667 44.202666l-102.016-101.973333-102.016 101.973333a31.274667 31.274667 0 0 1-44.202666-44.202666l101.973333-101.973334-101.973333-102.058666A31.274667 31.274667 0 1 1 409.813333 366.08l101.973334 102.016 102.058666-102.016a31.274667 31.274667 0 1 1 44.202667 44.202667l-102.016 102.016 101.973333 102.016z" p-id="3225"></path></svg>
