<?xml version="1.0" standalone="no"?><!DOCTYPE svg PUBLIC "-//W3C//DTD SVG 1.1//EN" "http://www.w3.org/Graphics/SVG/1.1/DTD/svg11.dtd"><svg t="1528194542989" class="icon" style="" viewBox="0 0 1024 1024" version="1.1" xmlns="http://www.w3.org/2000/svg" p-id="6936" xmlns:xlink="http://www.w3.org/1999/xlink" width="32" height="32"><defs><style type="text/css"></style></defs><path d="M512 129.024c-211.456 0-382.976 171.52-382.976 382.976s171.52 382.976 382.976 382.976 382.976-171.52 382.976-382.976-171.52-382.976-382.976-382.976zM399.36 687.616c-6.656 0-13.312-2.56-17.92-7.168L241.152 542.72c-9.728-9.216-10.24-25.088-0.512-34.816l0.512-0.512c10.24-9.728 25.6-9.728 35.84 0L399.36 627.2l296.448-290.304c10.24-9.728 26.112-9.728 35.84 0 9.728 9.216 10.24 25.088 0.512 34.816l-0.512 0.512-314.368 307.712c-4.608 4.608-11.264 7.168-17.92 7.68z" p-id="6937" fill=""></path></svg>
