<?xml version="1.0" standalone="no"?><!DOCTYPE svg PUBLIC "-//W3C//DTD SVG 1.1//EN" "http://www.w3.org/Graphics/SVG/1.1/DTD/svg11.dtd"><svg t="1527233099121" class="icon" style="" viewBox="0 0 1024 1024" version="1.1" xmlns="http://www.w3.org/2000/svg" p-id="12569" xmlns:xlink="http://www.w3.org/1999/xlink" width="32" height="32"><defs><style type="text/css"></style></defs><path d="M765.78417969 419.71484375h-23.07128907v-46.14257813c0-127.38647461-103.32641602-230.71289063-230.71289062-230.71289062S281.28710937 246.18579102 281.28710937 373.57226562v46.14257813h-23.07128906c-25.46081543 0-46.14257813 20.6817627-46.14257812 46.14257813v369.14062499c0 25.46081543 20.6817627 46.14257813 46.14257812 46.14257813h507.56835938c25.46081543 0 46.14257813-20.6817627 46.14257812-46.14257812V465.85742187c0-25.46081543-20.6817627-46.14257813-46.14257812-46.14257812z m-438.35449219-46.14257813c0-101.76086426 82.80944825-184.5703125 184.5703125-184.57031249s184.5703125 82.80944825 184.5703125 184.57031249v46.14257813H327.4296875v-46.14257812z m438.35449219 461.42578126H258.21582031V465.85742187h507.56835938v369.14062501z" p-id="12570"></path><path d="M512 558.14257813c-12.77160645 0-23.07128906 10.29968262-23.07128906 23.07128906v138.42773437c0 12.77160645 10.29968262 23.07128906 23.07128906 23.07128907s23.07128906-10.29968262 23.07128906-23.07128907V581.21386719c0-12.77160645-10.29968262-23.07128906-23.07128906-23.07128907z" p-id="12571"></path></svg>