<?xml version="1.0" standalone="no"?><!DOCTYPE svg PUBLIC "-//W3C//DTD SVG 1.1//EN" "http://www.w3.org/Graphics/SVG/1.1/DTD/svg11.dtd"><svg t="1527233572446" class="icon" style="" viewBox="0 0 1024 1024" version="1.1" xmlns="http://www.w3.org/2000/svg" p-id="14958" xmlns:xlink="http://www.w3.org/1999/xlink" width="32" height="32"><defs><style type="text/css"></style></defs><path d="M798.723 174.783c0-60.577-49.106-109.683-109.683-109.683H334.332c-60.577 0-109.684 49.106-109.684 109.683v673.98c0 60.577 49.107 109.683 109.684 109.683H689.04c60.577 0 109.683-49.106 109.683-109.683v-673.98z m-534.166 62.232h494.257v529.05H264.557v-529.05z m69.8-132.006h354.66c38.549 0 69.798 31.25 69.798 69.798v22.3H264.558v-22.3c0-38.548 31.25-69.798 69.798-69.798z m354.66 813.528h-354.66c-38.55 0-69.8-31.25-69.8-69.799V804.95h494.257v43.788c0 38.55-31.25 69.799-69.797 69.799z" fill="" p-id="14959"></path><path d="M513.174 829.943c-16.708 0-30.301 13.594-30.301 30.301 0 16.708 13.593 30.302 30.3 30.302s30.3-13.594 30.3-30.302c0-16.707-13.592-30.3-30.3-30.3z" fill="" p-id="14960"></path></svg>