<?xml version="1.0" standalone="no"?><!DOCTYPE svg PUBLIC "-//W3C//DTD SVG 1.1//EN" "http://www.w3.org/Graphics/SVG/1.1/DTD/svg11.dtd"><svg t="1529653264054" class="icon" style="" viewBox="0 0 1024 1024" version="1.1" xmlns="http://www.w3.org/2000/svg" p-id="10541" xmlns:xlink="http://www.w3.org/1999/xlink" width="32" height="32"><defs><style type="text/css"></style></defs><path d="M893.676 240.455c0-32.54-26.685-59.418-59.408-59.903l-31.53-0.525c-0.607-0.02-62.618-1.938-124.368-26.747-67.967-27.463-111.448-58.318-111.731-58.52l-19.721-14.14a60.806 60.806 0 0 0-70.955 0.152l-18.814 13.585c-7.791 5.43-49.98 33.802-112.316 58.914-61.467 24.769-121.722 26.687-123.984 26.747l-31.924 0.534c-32.803 0.485-59.478 27.362-59.478 59.903v321.616c0 88.88 50.071 187.279 137.366 269.93 80.685 76.526 172.208 122.207 244.839 122.207 72.65 0 164.175-45.68 244.777-122.186 87.326-82.683 137.428-181.07 137.428-269.97l-0.18-321.597zM713.172 787.118c-67.2 63.777-146.31 104.997-201.52 104.997-55.209 0-134.318-41.22-201.578-105.018-74.992-71.015-117.999-153.032-117.999-225.026V242.626l30.23-0.505c7.53-0.212 75.476-2.857 146.107-31.309 68.553-27.624 115.89-59.468 123.66-64.908l19.46-13.999 26.12 18.774h0.566c17.28 11.334 59.106 36.92 116.576 60.145C727 239.84 798.095 242.042 801.385 242.133l29.655 0.494 0.182 319.445c-0.001 71.983-43.018 154.01-118.05 225.046zM480.89 578.362L363.284 461.726l-44.288 43.915 132.22 131.13c8.174 8.094 18.933 12.141 29.673 12.141 10.739 0 21.518-4.047 29.714-12.162l239.448-237.5-44.268-43.916-224.894 223.028z" p-id="10542" fill=""></path></svg>
