<?xml version="1.0" standalone="no"?><!DOCTYPE svg PUBLIC "-//W3C//DTD SVG 1.1//EN" "http://www.w3.org/Graphics/SVG/1.1/DTD/svg11.dtd"><svg t="1529653928838" class="icon" style="" viewBox="0 0 1024 1024" version="1.1" xmlns="http://www.w3.org/2000/svg" p-id="8735" xmlns:xlink="http://www.w3.org/1999/xlink" width="32" height="32"><defs><style type="text/css"></style></defs><path d="M512 120c216.1 0 392 175.9 392 392S728.1 904 512 904 120 728.1 120 512s175.9-392 392-392m0-56C264.6 64 64 264.6 64 512s200.6 448 448 448 448-200.6 448-448S759.4 64 512 64z" fill="#" p-id="8736"></path><path d="M512 353.6L670.4 512 512 670.4 353.6 512 512 353.6m0-66.5c-7.8 0-15.7 3-21.6 8.9L296 490.4c-11.9 11.9-11.9 31.3 0 43.2L490.4 728c5.9 5.9 13.8 8.9 21.6 8.9s15.7-3 21.6-8.9L728 533.6c11.9-11.9 11.9-31.3 0-43.2L533.6 296c-5.9-5.9-13.8-8.9-21.6-8.9z" fill="" p-id="8737"></path></svg>
