<?xml version="1.0" standalone="no"?><!DOCTYPE svg PUBLIC "-//W3C//DTD SVG 1.1//EN" "http://www.w3.org/Graphics/SVG/1.1/DTD/svg11.dtd"><svg t="1528337281823" class="icon" style="" viewBox="0 0 1024 1024" version="1.1" xmlns="http://www.w3.org/2000/svg" p-id="5976" xmlns:xlink="http://www.w3.org/1999/xlink" width="32" height="32"><defs><style type="text/css"></style></defs><path d="M727.6544 183.588571H296.3456a112.757029 112.757029 0 0 0-112.757029 112.757029v431.294171a112.757029 112.757029 0 0 0 112.757029 112.757029h431.294171a112.757029 112.757029 0 0 0 112.757029-112.757029V296.3456a112.7424 112.7424 0 0 0-112.7424-112.757029z m-4.476343 222.529829L467.836343 661.504a31.100343 31.100343 0 0 1-21.8112 9.040457c-8.133486 0-16.091429-3.306057-21.8112-9.055086l-123.392-123.377371c-5.807543-5.822171-9.025829-13.575314-9.025829-21.8112s3.218286-15.989029 9.025829-21.8112c5.822171-5.807543 13.575314-9.025829 21.8112-9.025829s15.989029 3.218286 21.8112 9.025829l101.566171 101.5808 233.515886-233.589029c5.822171-5.807543 13.575314-9.025829 21.8112-9.025828s15.989029 3.218286 21.8112 9.025828c5.807543 5.822171 9.025829 13.575314 9.025829 21.8112s-3.189029 15.989029-8.996572 21.825829z" fill="" p-id="5977"></path></svg>
