<?xml version="1.0" standalone="no"?><!DOCTYPE svg PUBLIC "-//W3C//DTD SVG 1.1//EN" "http://www.w3.org/Graphics/SVG/1.1/DTD/svg11.dtd"><svg t="1527235692947" class="icon" style="" viewBox="0 0 1024 1024" version="1.1" xmlns="http://www.w3.org/2000/svg" p-id="17241" xmlns:xlink="http://www.w3.org/1999/xlink" width="32" height="32"><defs><style type="text/css"></style></defs><path d="M512 152.32c-198.64064 0-359.68 161.03936-359.68 359.68s161.03936 359.68 359.68 359.68 359.68-161.03936 359.68-359.68S710.64064 152.32 512 152.32z m0 677.39136c-175.46752 0-317.71648-142.23872-317.71648-317.71136 0-175.46752 142.25408-317.71648 317.71648-317.71648S829.71648 336.53248 829.71648 512 687.46752 829.71136 512 829.71136z" p-id="17242" fill="#8a8a8a"></path><path d="M512 645.66784c-17.98656 0-29.97248 11.648-29.97248 29.09696 0 17.408 11.98592 29.06624 29.97248 29.06624s29.96224-11.65312 29.96224-29.06624c-0.01024-17.44384-11.97568-29.09696-29.96224-29.09696z m5.99552-325.49888c-53.9392 0-95.91296 23.24992-125.88544 58.1376l29.97248 23.24992c23.97696-29.06112 47.95904-46.50496 95.91296-46.50496s65.94048 23.24992 65.94048 52.31104c0 58.13248-107.904 63.9488-107.904 139.52 0 17.41312 5.99552 34.8672 23.97696 46.48448l35.968-17.408c-11.99104-5.80608-17.98656-17.4592-17.98656-23.26016 0-58.12736 113.8944-63.93856 113.8944-145.32608 0.00512-46.5152-41.95328-87.20384-113.88928-87.20384z" p-id="17243" fill=""></path></svg>
