<?xml version="1.0" standalone="no"?><!DOCTYPE svg PUBLIC "-//W3C//DTD SVG 1.1//EN" "http://www.w3.org/Graphics/SVG/1.1/DTD/svg11.dtd"><svg t="1529653406187" class="icon" style="" viewBox="0 0 1024 1024" version="1.1" xmlns="http://www.w3.org/2000/svg" p-id="5474" xmlns:xlink="http://www.w3.org/1999/xlink" width="32" height="32"><defs><style type="text/css"></style></defs><path d="M766.21344565 681.99264649L631.35148682 629.4369679C631.35148682 629.4369679 605.64224421 619.45052438 595.64860247 609.62962399 589.22848931 603.31747228 589.6891251 588.42597561 595.37150148 569.40315312 601.05387783 550.38032763 670.18525263 473.08346264 670.18525263 402.86527608 670.18525263 294.40350971 598.89464663 206.4796294 510.95277403 206.4796294 423.01449728 206.4796294 351.72389126 294.40350971 351.72389126 402.86527608 351.72389126 470.11811891 413.32315003 550.29755906 420.93083941 564.86876655 428.54212757 579.44357586 426.68878907 601.64766621 420.68612653 608.38086736 411.66773982 618.49326521 378.71067983 628.62005833 378.71067983 628.62005833L257.13518491 682.80955604C228.73050374 693.00832367 206.4796294 719.797181 206.4796294 750.0228155L206.4796294 764.35290895C206.4796294 797.33875828 233.26848673 817.51677179 266.19315798 817.51677179L470.0929284 817.51677179 539.98363114 817.51677179 757.15907141 817.51677179C790.08374325 817.51677179 816.86900117 797.33875828 816.86900117 764.35290895L816.86900117 750.0228155C816.86900117 719.797181 794.62172862 692.1878153 766.21344565 681.99264649" p-id="5475" fill=""></path></svg>
