<?xml version="1.0" standalone="no"?><!DOCTYPE svg PUBLIC "-//W3C//DTD SVG 1.1//EN" "http://www.w3.org/Graphics/SVG/1.1/DTD/svg11.dtd"><svg t="1527232611556" class="icon" style="" viewBox="0 0 1024 1024" version="1.1" xmlns="http://www.w3.org/2000/svg" p-id="10491" xmlns:xlink="http://www.w3.org/1999/xlink" width="32" height="32"><defs><style type="text/css"></style></defs><path d="M514.970658 380.314819c-92.369757 0-167.260421 58.086953-167.260421 129.732713 0 71.644737 74.891687 129.732713 167.260421 129.732713s167.260421-58.087976 167.260421-129.732713C682.231079 438.401772 607.340415 380.314819 514.970658 380.314819L514.970658 380.314819zM514.970658 596.537372c-61.485353 0-112.787786-39.739073-112.787786-87.441515 0-47.689139 50.021254-86.487793 111.506607-86.487793 61.498656 0 111.506607 38.798655 111.506607 86.487793C625.198132 556.798299 576.47136 596.537372 514.970658 596.537372L514.970658 596.537372zM957.705108 504.071424c-0.325411-1.087774-0.160659-2.248204-0.596588-3.313465-0.164752-0.457418-0.546446-0.719384-0.735757-1.111311-0.301875-0.611937-0.217964-1.338485-0.629333-1.930979-81.097016-143.985322-255.815293-226.862891-442.053951-226.862891-186.220239 0-364.464829 82.728166-445.578218 226.724745-0.353041 0.602727-0.299829 1.236154-0.571005 1.922792-0.191358 0.420579-0.598634 0.655939-0.776689 1.054005-0.434905 1.087774-0.25992 2.230808-0.531096 3.326768-0.515746 1.943258-0.992607 3.843538-0.992607 5.79396 0 1.99647 0.475837 3.843538 0.992607 5.808286 0.272199 1.077541 0.096191 2.26867 0.531096 3.305279 0.177032 0.485047 0.585331 0.693802 0.776689 1.11745 0.272199 0.603751 0.217964 1.330298 0.571005 1.921769 81.112366 143.986345 257.617335 225.51315 443.837574 225.51315 186.236612 0 362.697579-81.357959 443.795619-225.345328 0.409322-0.60989 0.327458-1.26583 0.629333-1.942235 0.188288-0.379647 0.569982-0.654916 0.735757-1.066285 0.435928-1.045819 0.271176-2.217505 0.596588-3.313465 0.490164-1.945305 0.952698-3.833305 0.952698-5.820566C958.656783 507.903705 958.196295 506.036171 957.705108 504.071424L957.705108 504.071424zM511.948835 704.100156c-157.935032 0-313.396733-64.570621-389.772214-194.401572C197.831694 380.336308 355.357404 314.096674 513.690502 314.096674c158.27784 0 312.308959 66.311265 387.991662 195.759499C826.053696 639.189797 670.28091 704.100156 511.948835 704.100156L511.948835 704.100156z" p-id="10492" fill=""></path></svg>
