<?xml version="1.0" standalone="no"?><!DOCTYPE svg PUBLIC "-//W3C//DTD SVG 1.1//EN" "http://www.w3.org/Graphics/SVG/1.1/DTD/svg11.dtd"><svg t="1527232808732" class="icon" style="" viewBox="0 0 1024 1024" version="1.1" xmlns="http://www.w3.org/2000/svg" p-id="11216" xmlns:xlink="http://www.w3.org/1999/xlink" width="32" height="32"><defs><style type="text/css"></style></defs><path d="M911.36 389.12c-10.24-10.24-28.16-7.68-35.84 2.56 0 2.56-2.56 5.12-7.68 7.68-5.12 7.68-12.8 15.36-20.48 23.04-23.04 23.04-51.2 46.08-79.36 69.12-81.92 61.44-168.96 97.28-256 97.28-87.04 0-174.08-35.84-256-97.28-28.16-20.48-56.32-46.08-79.36-69.12-7.68-7.68-15.36-15.36-20.48-23.04-2.56-5.12-5.12-7.68-7.68-7.68-10.24-10.24-25.6-12.8-35.84-2.56-10.24 10.24-12.8 25.6-2.56 35.84 2.56 2.56 5.12 5.12 7.68 10.24l23.04 23.04c23.04 23.04 48.64 43.52 74.24 64l-81.92 97.28c-10.24 10.24-7.68 28.16 2.56 35.84 10.24 10.24 28.16 7.68 35.84-2.56l84.48-102.4c33.28 23.04 66.56 40.96 102.4 53.76l-51.2 122.88c-5.12 12.8 0 28.16 12.8 33.28 12.8 5.12 28.16 0 33.28-12.8l51.2-125.44c33.28 10.24 69.12 15.36 104.96 15.36 28.16 0 53.76-2.56 81.92-10.24l76.8 125.44c7.68 12.8 23.04 15.36 35.84 7.68 12.8-7.68 15.36-23.04 7.68-35.84l-69.12-112.64c40.96-15.36 81.92-35.84 122.88-61.44l84.48 102.4c10.24 10.24 25.6 12.8 35.84 2.56 10.24-10.24 12.8-25.6 2.56-35.84l-81.92-99.84c28.16-20.48 53.76-43.52 74.24-64 7.68-7.68 15.36-17.92 23.04-23.04 5.12-5.12 7.68-7.68 7.68-10.24 12.8-7.68 12.8-23.04 0-33.28z" p-id="11217" fill=""></path></svg>
